<?xml version="1.0" encoding="UTF-8" standalone="no" ?>
<!DOCTYPE svg PUBLIC "-//W3C//DTD SVG 1.1//EN" "http://www.w3.org/Graphics/SVG/1.1/DTD/svg11.dtd">
<svg xmlns="http://www.w3.org/2000/svg" xmlns:xlink="http://www.w3.org/1999/xlink" version="1.1" width="1080" height="1080" viewBox="0 0 1080 1080" xml:space="preserve">
<desc>Created with Fabric.js 5.2.4</desc>
<defs>
</defs>
<g transform="matrix(1 0 0 1 540 540)" id="0b16fe74-40f4-42a0-9c51-be112cd8282a"  >
<rect style="stroke: none; stroke-width: 1; stroke-dasharray: none; stroke-linecap: butt; stroke-dashoffset: 0; stroke-linejoin: miter; stroke-miterlimit: 4; fill: rgb(255,255,255); fill-rule: nonzero; opacity: 1; visibility: hidden;" vector-effect="non-scaling-stroke"  x="-540" y="-540" rx="0" ry="0" width="1080" height="1080" />
</g>
<g transform="matrix(1 0 0 1 540 540)" id="fe4bd720-69a7-42d8-aeea-537617951be9"  >
</g>
<g transform="matrix(384.03 0 0 146.51 536.87 541.45)"  >
<path style="stroke: none; stroke-width: 1; stroke-dasharray: none; stroke-linecap: butt; stroke-dashoffset: 0; stroke-linejoin: miter; stroke-miterlimit: 10; fill: rgb(0,0,0); fill-rule: nonzero; opacity: 1;" vector-effect="non-scaling-stroke"  transform=" translate(0, 0)" d="M -0.707 0.707 L -0.707 -0.707 L 0.707 -0.707 L 0.707 0.707 z" stroke-linecap="round" />
</g>
<g transform="matrix(1.57 0 0 1.57 632.23 539.88)"  >
<path style="stroke: none; stroke-width: 1; stroke-dasharray: none; stroke-linecap: butt; stroke-dashoffset: 0; stroke-linejoin: miter; stroke-miterlimit: 4; fill: rgb(255,255,255); fill-rule: nonzero; opacity: 1;" vector-effect="non-scaling-stroke"  transform=" translate(-84.53, 13.55)" d="M 4.59 -32.81 L 8.89 -32.81 L 8.89 -26.42 L 12.87 -26.42 L 12.87 -22.92 L 8.89 -22.92 L 8.89 -6.54 Q 8.89 -4.98 9.4 -4.17 Q 9.91 -3.37 11.16 -3.37 L 11.16 -3.37 Q 12.01 -3.37 12.89 -3.66 L 12.89 -3.66 L 12.84 0 Q 11.38 0.49 9.84 0.49 L 9.84 0.49 Q 7.28 0.49 5.93 -1.34 Q 4.59 -3.17 4.59 -6.52 L 4.59 -6.52 L 4.59 -22.92 L 0.56 -22.92 L 0.56 -26.42 L 4.59 -26.42 L 4.59 -32.81 Z M 22.31 -37.5 L 22.31 -23.71 Q 24.78 -26.9 28.61 -26.9 L 28.61 -26.9 Q 35.62 -26.9 35.72 -17.55 L 35.72 -17.55 L 35.72 0 L 31.42 0 L 31.42 -17.36 Q 31.42 -20.46 30.38 -21.77 Q 29.34 -23.07 27.27 -23.07 L 27.27 -23.07 Q 25.66 -23.07 24.37 -22 Q 23.09 -20.92 22.31 -19.19 L 22.31 -19.19 L 22.31 0 L 17.99 0 L 17.99 -37.5 L 22.31 -37.5 Z M 46.8 -26.42 L 46.8 0 L 42.48 0 L 42.48 -26.42 L 46.8 -26.42 Z M 47.14 -33.42 L 47.14 -33.42 Q 47.14 -32.32 46.53 -31.59 Q 45.92 -30.86 44.67 -30.86 L 44.67 -30.86 Q 43.45 -30.86 42.84 -31.59 Q 42.23 -32.32 42.23 -33.42 Q 42.23 -34.52 42.84 -35.28 Q 43.45 -36.04 44.67 -36.04 Q 45.89 -36.04 46.52 -35.27 Q 47.14 -34.5 47.14 -33.42 Z M 53.58 -26.42 L 57.66 -26.42 L 57.78 -23.56 Q 60.3 -26.9 64.2 -26.9 L 64.2 -26.9 Q 71.21 -26.9 71.31 -17.55 L 71.31 -17.55 L 71.31 0 L 67.01 0 L 67.01 -17.36 Q 67.01 -20.46 65.97 -21.77 Q 64.93 -23.07 62.86 -23.07 L 62.86 -23.07 Q 61.25 -23.07 59.97 -22 Q 58.68 -20.92 57.9 -19.19 L 57.9 -19.19 L 57.9 0 L 53.58 0 L 53.58 -26.42 Z M 76.92 -11.47 L 76.92 -14.4 Q 76.92 -20.58 79.16 -23.74 Q 81.41 -26.9 85.73 -26.9 L 85.73 -26.9 Q 89.76 -26.9 91.86 -23.46 L 91.86 -23.46 L 92.08 -26.42 L 95.99 -26.42 L 95.99 0.24 Q 95.99 5.15 93.47 7.78 Q 90.96 10.4 86.46 10.4 L 86.46 10.4 Q 84.51 10.4 82.08 9.44 Q 79.65 8.47 78.43 7.06 L 78.43 7.06 L 80.19 4.08 Q 82.88 6.71 86.12 6.71 L 86.12 6.71 Q 91.52 6.71 91.66 0.83 L 91.66 0.83 L 91.66 -2.61 Q 89.57 0.49 85.71 0.49 L 85.71 0.49 Q 81.61 0.49 79.31 -2.6 Q 77.02 -5.69 76.92 -11.47 L 76.92 -11.47 Z M 81.24 -14.58 L 81.24 -11.94 Q 81.24 -7.5 82.55 -5.41 Q 83.85 -3.32 86.83 -3.32 L 86.83 -3.32 Q 90.05 -3.32 91.66 -6.62 L 91.66 -6.62 L 91.66 -19.82 Q 89.98 -23.07 86.88 -23.07 L 86.88 -23.07 Q 83.9 -23.07 82.58 -20.98 Q 81.26 -18.9 81.24 -14.58 L 81.24 -14.58 Z M 118.66 -23.22 L 106.41 -3.69 L 119.15 -3.69 L 119.15 0 L 101.48 0 L 101.48 -3.32 L 113.59 -22.68 L 101.57 -22.68 L 101.57 -26.42 L 118.66 -26.42 L 118.66 -23.22 Z M 124.64 -2.37 L 124.64 -2.37 Q 124.64 -3.54 125.34 -4.32 Q 126.03 -5.1 127.43 -5.1 Q 128.82 -5.1 129.54 -4.32 Q 130.26 -3.54 130.26 -2.37 L 130.26 -2.37 Q 130.26 -1.25 129.54 -0.49 Q 128.82 0.27 127.43 0.27 Q 126.03 0.27 125.34 -0.49 Q 124.64 -1.25 124.64 -2.37 Z M 142.17 -26.42 L 142.17 0 L 137.85 0 L 137.85 -26.42 L 142.17 -26.42 Z M 142.51 -33.42 L 142.51 -33.42 Q 142.51 -32.32 141.9 -31.59 Q 141.29 -30.86 140.05 -30.86 L 140.05 -30.86 Q 138.83 -30.86 138.21 -31.59 Q 137.6 -32.32 137.6 -33.42 Q 137.6 -34.52 138.21 -35.28 Q 138.83 -36.04 140.05 -36.04 Q 141.27 -36.04 141.89 -35.27 Q 142.51 -34.5 142.51 -33.42 Z M 148.05 -11.55 L 148.05 -14.43 Q 148.05 -20.19 150.85 -23.55 Q 153.64 -26.9 158.23 -26.9 Q 162.82 -26.9 165.62 -23.63 Q 168.41 -20.36 168.49 -14.72 L 168.49 -14.72 L 168.49 -11.94 Q 168.49 -6.2 165.7 -2.86 Q 162.92 0.49 158.28 0.49 L 158.28 0.49 Q 153.69 0.49 150.92 -2.76 Q 148.15 -6.01 148.05 -11.55 L 148.05 -11.55 Z M 152.37 -14.45 L 152.37 -11.94 Q 152.37 -7.86 153.97 -5.53 Q 155.57 -3.2 158.28 -3.2 L 158.28 -3.2 Q 163.99 -3.2 164.16 -11.45 L 164.16 -11.45 L 164.16 -14.43 Q 164.16 -18.48 162.55 -20.84 Q 160.94 -23.19 158.23 -23.19 L 158.23 -23.19 Q 155.57 -23.19 153.97 -20.84 Q 152.37 -18.48 152.37 -14.45 L 152.37 -14.45 Z" stroke-linecap="round" />
</g>
<g transform="matrix(1.15 0 0 1.15 390.07 540.13)"  >
<path style="stroke: rgb(255,255,255); stroke-opacity: 0; stroke-width: 1; stroke-dasharray: none; stroke-linecap: butt; stroke-dashoffset: 0; stroke-linejoin: miter; stroke-miterlimit: 4; fill: rgb(255,255,255); fill-rule: nonzero; opacity: 1;" vector-effect="non-scaling-stroke"  transform=" translate(-65.18, -65.18)" d="M 0 65.176 C 0 29.18 29.18 0 65.176 0 C 101.172 0 130.352 29.18 130.352 65.176 C 130.352 101.172 101.172 130.352 65.176 130.352 C 29.18 130.352 0 101.172 0 65.176 z M 65.176 124.426 C 97.899 124.426 124.426 97.899 124.426 65.176 C 124.426 32.453 97.899 5.926000000000002 65.176 5.926000000000002 C 32.453 5.926000000000002 5.926000000000002 32.453 5.926000000000002 65.176 C 5.926000000000002 97.899 32.453 124.426 65.176 124.426 z" stroke-linecap="round" />
</g>
<g transform="matrix(0.95 0 0 0.95 389.94 509.42)"  >
<path style="stroke: none; stroke-width: 1; stroke-dasharray: none; stroke-linecap: butt; stroke-dashoffset: 0; stroke-linejoin: miter; stroke-miterlimit: 4; fill: rgb(255,255,255); fill-rule: nonzero; opacity: 1;" vector-effect="non-scaling-stroke"  transform=" translate(-48.07, -16.6)" d="M 48.066 25.249 C 45.679 25.249 43.744 23.32 43.744 20.926 L 43.744 12.281999999999998 C 43.744 9.889 45.68 7.959999999999998 48.066 7.959999999999998 C 50.451 7.959999999999998 52.388000000000005 9.889999999999999 52.388000000000005 12.281999999999998 L 52.388000000000005 20.926 C 52.389 23.32 50.451 25.249 48.066 25.249" stroke-linecap="round" />
</g>
<g transform="matrix(0.95 0 0 0.95 413.19 519.06)"  >
<path style="stroke: none; stroke-width: 1; stroke-dasharray: none; stroke-linecap: butt; stroke-dashoffset: 0; stroke-linejoin: miter; stroke-miterlimit: 4; fill: rgb(255,255,255); fill-rule: nonzero; opacity: 1;" vector-effect="non-scaling-stroke"  transform=" translate(-72.52, -26.73)" d="M 69.462 34.112 C 68.35600000000001 34.112 67.24900000000001 33.691 66.405 32.846000000000004 C 64.71600000000001 31.154000000000003 64.71600000000001 28.422000000000004 66.405 26.734 L 72.516 20.622 C 74.20700000000001 18.931 76.938 18.931 78.628 20.622 C 80.318 22.315 80.318 25.046 78.628 26.734 L 72.516 32.846000000000004 C 71.676 33.691 70.567 34.112 69.462 34.112" stroke-linecap="round" />
</g>
<g transform="matrix(0.95 0 0 0.95 422.82 542.33)"  >
<path style="stroke: none; stroke-width: 1; stroke-dasharray: none; stroke-linecap: butt; stroke-dashoffset: 0; stroke-linejoin: miter; stroke-miterlimit: 4; fill: rgb(255,255,255); fill-rule: nonzero; opacity: 1;" vector-effect="non-scaling-stroke"  transform=" translate(-82.64, -51.19)" d="M 86.965 55.512 L 78.321 55.512 C 75.93299999999999 55.512 73.999 53.578 73.999 51.189 C 73.999 48.8 75.935 46.868 78.321 46.868 L 86.965 46.868 C 89.351 46.868 91.28800000000001 48.801 91.28800000000001 51.189 C 91.288 53.58 89.35 55.512 86.965 55.512" stroke-linecap="round" />
</g>
<g transform="matrix(0.95 0 0 0.95 413.18 565.58)"  >
<path style="stroke: none; stroke-width: 1; stroke-dasharray: none; stroke-linecap: butt; stroke-dashoffset: 0; stroke-linejoin: miter; stroke-miterlimit: 4; fill: rgb(255,255,255); fill-rule: nonzero; opacity: 1;" vector-effect="non-scaling-stroke"  transform=" translate(-72.51, -75.64)" d="M 75.564 83.023 C 74.46 83.023 73.34899999999999 82.591 72.50699999999999 81.749 L 66.39599999999999 75.639 C 64.70599999999999 73.951 64.70599999999999 71.21799999999999 66.39599999999999 69.535 C 68.08699999999999 67.843 70.81899999999999 67.843 72.50699999999999 69.535 L 78.61899999999999 75.639 C 80.30899999999998 77.333 80.30899999999998 80.066 78.61899999999999 81.749 C 77.776 82.593 76.671 83.023 75.564 83.023" stroke-linecap="round" />
</g>
<g transform="matrix(0.95 0 0 0.95 366.67 565.57)"  >
<path style="stroke: none; stroke-width: 1; stroke-dasharray: none; stroke-linecap: butt; stroke-dashoffset: 0; stroke-linejoin: miter; stroke-miterlimit: 4; fill: rgb(255,255,255); fill-rule: nonzero; opacity: 1;" vector-effect="non-scaling-stroke"  transform=" translate(-23.6, -75.63)" d="M 20.547 83.007 C 19.442 83.007 18.336000000000002 82.58500000000001 17.491 81.74000000000001 C 15.801 80.04800000000002 15.801 77.316 17.491 75.629 L 23.603 69.518 C 25.294 67.82600000000001 28.025000000000002 67.82600000000001 29.715000000000003 69.518 C 31.406000000000002 71.209 31.406000000000002 73.94200000000001 29.715000000000003 75.629 L 23.602000000000004 81.74000000000001 C 22.761 82.585 21.653 83.007 20.547 83.007" stroke-linecap="round" />
</g>
<g transform="matrix(0.95 0 0 0.95 357.04 542.31)"  >
<path style="stroke: none; stroke-width: 1; stroke-dasharray: none; stroke-linecap: butt; stroke-dashoffset: 0; stroke-linejoin: miter; stroke-miterlimit: 4; fill: rgb(255,255,255); fill-rule: nonzero; opacity: 1;" vector-effect="non-scaling-stroke"  transform=" translate(-13.48, -51.17)" d="M 17.805 55.495 L 9.161 55.495 C 6.776 55.495 4.837999999999999 53.562 4.837999999999999 51.174 C 4.837999999999999 48.784 6.775999999999999 46.852 9.161 46.852 L 17.805 46.852 C 20.192999999999998 46.852 22.128 48.785 22.128 51.174 C 22.127 53.562 20.193 55.495 17.805 55.495" stroke-linecap="round" />
</g>
<g transform="matrix(0.95 0 0 0.95 366.68 519.05)"  >
<path style="stroke: none; stroke-width: 1; stroke-dasharray: none; stroke-linecap: butt; stroke-dashoffset: 0; stroke-linejoin: miter; stroke-miterlimit: 4; fill: rgb(255,255,255); fill-rule: nonzero; opacity: 1;" vector-effect="non-scaling-stroke"  transform=" translate(-23.62, -26.73)" d="M 26.675 34.104 C 25.57 34.104 24.462 33.676 23.62 32.836 L 17.508000000000003 26.726 C 15.819000000000003 25.034 15.819000000000003 22.302 17.508000000000003 20.613999999999997 C 19.199 18.926 21.930000000000003 18.926 23.620000000000005 20.613999999999997 L 29.732000000000006 26.726 C 31.422000000000008 28.418 31.422000000000008 31.149 29.732000000000006 32.836 C 28.889 33.677 27.782 34.104 26.675 34.104" stroke-linecap="round" />
</g>
<g transform="matrix(0.95 0 0 0.95 389.92 551.56)"  >
<path style="stroke: none; stroke-width: 1; stroke-dasharray: none; stroke-linecap: butt; stroke-dashoffset: 0; stroke-linejoin: miter; stroke-miterlimit: 4; fill: rgb(255,255,255); fill-rule: nonzero; opacity: 1;" vector-effect="non-scaling-stroke"  transform=" translate(-48.06, -60.93)" d="M 48.062 32.34 C 37.382 32.34 28.721999999999998 40.999 28.721999999999998 51.68000000000001 C 28.721999999999998 58.48400000000001 32.245 64.456 37.558 67.90400000000001 L 37.558 79.01500000000001 C 37.558 84.80700000000002 42.269999999999996 89.51900000000002 48.062 89.51900000000002 C 53.854 89.51900000000002 58.565999999999995 84.80700000000002 58.565999999999995 79.01500000000001 L 58.565999999999995 67.903 C 63.879 64.456 67.40299999999999 58.48400000000001 67.40299999999999 51.679 C 67.403 40.999 58.743 32.34 48.062 32.34 z M 48.062 63.757 C 41.257 63.757 35.739999999999995 58.239999999999995 35.739999999999995 51.435 C 35.739999999999995 44.63 41.257 39.114000000000004 48.062 39.114000000000004 C 54.867999999999995 39.114000000000004 60.384 44.63100000000001 60.384 51.435 C 60.385 58.24 54.868 63.757 48.062 63.757 z" stroke-linecap="round" />
</g>
</svg>